<?xml version="1.0" encoding="UTF-8"?><svg id="Layer_2" xmlns="http://www.w3.org/2000/svg" viewBox="0 0 449.4 145.05"><defs><style>.cls-1{font-size:63.3px;}.cls-1,.cls-2{font-family:ThunderTitanSemi-Straight, 'Thunder Titan Semi-Straight';}.cls-2{font-size:23.74px;}.cls-2,.cls-3{fill:#e41e25;}</style></defs><text class="cls-1" transform="translate(-2.87 49.07)"><tspan x="0" y="0">fantasy</tspan></text><text class="cls-1" transform="translate(26.72 104.31)"><tspan x="0" y="0">faCtory</tspan></text><text class="cls-2" transform="translate(24.08 128.76)"><tspan x="0" y="0">Performance</tspan></text><path d="M436.86,31.15h-.02s-31.23,11.29-31.23,11.29c-.33-.23-.67-.44-1.04-.63-4-2-8.88-.38-10.88,3.62-.77,1.54-1.03,3.25-.75,4.95,.42,2.56,2.06,4.77,4.37,5.93l.58-1.15c-1.94-.97-3.32-2.84-3.67-4.99-.24-1.43-.02-2.86,.63-4.16,1.68-3.36,5.79-4.72,9.15-3.04,1.97,.99,3.38,2.93,3.72,5.11l1.16-.65,28.59-14.95h.02c-.2-.45-.41-.89-.63-1.33Z"/><path class="cls-3" d="M408.76,19.91c6.46,3.51,11.27,8.88,14.13,15.08l13.51-5.01c-3.54-7.1-9.23-13.23-16.73-17.31-19.47-10.59-43.84-3.38-54.43,16.09-2.44,4.49-3.94,9.24-4.55,14.02l.05,.17c.61-3.37,1.75-6.7,3.48-9.87,8.66-15.94,28.61-21.83,44.54-13.17Z"/><g><path d="M443.39,69.96c4.37-8.28,6.51-18.22,5.91-25.72h-.01c-.35-6.73-2.09-13.34-5.16-19.47-4.5-8.98-11.56-16.28-20.43-21.1-23.78-12.93-53.64-4.1-66.57,19.68-3.57,6.57-5.56,13.71-5.91,21.03h0c0,.16,0,.32-.01,.47-.02,.51-.03,1.02-.03,1.53,0,.19,0,.38,0,.58,0,.7,.02,1.4,.05,2.11h2.6c-.02-.34-.02-.69-.03-1.03-.01-.48-.03-.96-.03-1.43,0-.13,0-.25,0-.38,.06-5.77,1.19-11.46,3.37-16.84l4.08,1.12,.44-.93,.44-.93-3.52-2.47c.27-.54,.54-1.07,.83-1.6,3.25-5.98,7.64-10.97,12.74-14.83l3.18,3.01,.82-.61,.82-.61-1.93-3.81c6.11-3.93,13.07-6.37,20.26-7.15l1.05,4.15,1.02-.08,1.02-.08,.41-4.25c7.57-.25,15.29,1.35,22.47,5l-1.37,4.07,.9,.49,.9,.49,2.64-3.34c7.08,4.28,12.72,10.21,16.57,17.1l-3.56,2.56,.45,.92,.45,.92,4.28-1.23c2.5,5.44,3.92,11.39,4.16,17.55,.02,.61,.04,1.23,.04,1.84,0,.1,0,.21,0,.31-.05,5.8-1.18,11.51-3.37,16.9l-4.08-1.12-.44,.93-.44,.93,3.52,2.47c-.27,.54-.54,1.07-.83,1.6-1.27,2.33-2.71,4.51-4.3,6.53h3.31c1.18-1.67,2.28-3.43,3.26-5.29Z"/><path class="cls-3" d="M428.37,83.56l-3.18-3.01-.82,.61-.82,.61,1.93,3.81c-6.11,3.93-13.07,6.37-20.26,7.15l-1.05-4.15-1.02,.08-1.02,.08-.41,4.25c-5.81,.19-11.71-.71-17.38-2.79v2.73c20.31,6.99,43.35-.04,55.82-17.68h-3.31c-2.49,3.16-5.33,5.94-8.44,8.3Z"/></g></svg>