<?xml version="1.0" encoding="UTF-8"?><svg id="Layer_2" xmlns="http://www.w3.org/2000/svg" xmlns:xlink="http://www.w3.org/1999/xlink" viewBox="0 0 93.22 103.78"><defs><style>.cls-1{fill:#fff;}.cls-2{fill:#333;}.cls-3{fill:url(#linear-gradient);}.cls-4{fill:#b3bd35;}</style><linearGradient id="linear-gradient" x1="46.61" y1="121.76" x2="46.61" y2="-17.99" gradientUnits="userSpaceOnUse"><stop offset="0" stop-color="#214d60"/><stop offset=".85" stop-color="#698699"/></linearGradient></defs><rect class="cls-3" x="1.55" y="12.31" width="90.12" height="90.12" rx="7.6" ry="7.6"/><path class="cls-2" d="M84.09,103.78H9.13C4.09,103.78,0,99.69,0,94.66V19.69C0,14.66,4.09,10.57,9.13,10.57H84.09c5.03,0,9.13,4.09,9.13,9.13V94.66c0,5.03-4.09,9.13-9.13,9.13ZM9.13,13.71c-3.3,0-5.98,2.68-5.98,5.98V94.66c0,3.3,2.68,5.98,5.98,5.98H84.09c3.3,0,5.98-2.68,5.98-5.98V19.69c0-3.3-2.68-5.98-5.98-5.98H9.13Z"/><path class="cls-4" d="M81.85,88.28h0c1.86,.31,2.63-2.32,1.31-4.5L36.53,6.75c-.51-.85-1.25-1.43-1.97-1.55L3.74,.03C1.88-.29,1.11,2.34,2.44,4.53L47.63,79.09l1.43,2.43c.52,.88,1.26,1.47,2,1.6l1.46,.25,27.68,4.65,1.66,.28Z"/><path class="cls-1" d="M21.24,98.71h0c-1.45,.35-1.92-1.88-.82-3.81L59.52,26.84c.43-.75,1.02-1.28,1.58-1.41l23.93-5.73c1.45-.35,1.92,1.88,.82,3.81L47.96,89.39l-1.2,2.14c-.43,.77-1.03,1.32-1.61,1.45l-1.14,.27-21.49,5.15-1.28,.31Z"/></svg>