<?xml version="1.0" encoding="UTF-8"?><svg id="Layer_2" xmlns="http://www.w3.org/2000/svg" viewBox="0 0 204.73 75.62"><defs><style>.cls-1{fill:#94d600;}.cls-2{fill:#004a88;}.cls-3{fill:#00adee;}</style></defs><g><path class="cls-2" d="M16.53,59.48H0V30.94H5.33v24.45h13.54l-2.34,4.08Z"/><path class="cls-2" d="M27.2,59.48h-5.33V30.94h5.33v28.53Z"/><path class="cls-2" d="M54.84,58.55c-1.09,.53-3.44,1.66-7.15,1.66-9.05,0-15.2-6.47-15.2-14.91,0-7.96,5.74-15.07,15.15-15.07s15.19,6.63,15.19,14.87c0,5.94-2.67,8.97-4.08,10.59l4.73,4.65-3.44,3.39-5.21-5.17Zm2.34-13.3c0-6.55-4.08-11.07-9.5-11.07s-9.5,4.73-9.5,11.07c0,5.94,3.64,10.87,9.62,10.87s9.38-5.5,9.38-10.87Z"/><path class="cls-2" d="M92.91,30.94v17.74c0,2.02-.12,4.32-1.54,6.59-2.22,3.64-6.67,4.93-10.99,4.93-4.08,0-7.11-1.17-9.05-2.79-3.23-2.71-3.35-6.38-3.35-8.77V30.94h5.33v17.9c0,4.08,1.86,7.4,7.19,7.4s7.11-3.76,7.11-7.88V30.94h5.29Z"/><path class="cls-2" d="M105.4,59.48h-5.33V30.94h5.33v28.53Z"/><path class="cls-2" d="M112.67,30.94h9.62c2.51,0,5.33,.24,8.24,1.7,4.97,2.51,7.11,7.6,7.11,12.41s-2.18,10.1-7.27,12.73c-3.07,1.58-5.74,1.7-8.2,1.7h-9.5V30.94Zm5.25,24.57h3.64c2.34,0,4.93-.24,7.4-2.42,2.22-1.94,3.07-4.93,3.07-7.88s-.85-5.62-2.87-7.56c-2.55-2.47-5.74-2.63-8.2-2.63h-3.03v20.49Z"/><path class="cls-2" d="M148.27,59.48h-5.33V30.94h5.33v28.53Z"/><path class="cls-2" d="M165.49,59.48h-5.29v-24.49h-8.73v-4.08h22.71v4.08h-8.69v24.49Z"/><path class="cls-2" d="M191.59,59.48h-5.37v-10.79l-10.39-17.74h5.86l7.44,12.89,7.36-12.89h5.46l-10.35,17.74v10.79Z"/></g><g><path class="cls-2" d="M104.12,69c-.15-.19-.36-.33-.62-.43s-.51-.14-.74-.14c-.14,0-.28,.02-.42,.05s-.28,.08-.41,.15c-.13,.07-.23,.16-.31,.27s-.12,.25-.12,.41c0,.26,.1,.45,.29,.59,.19,.14,.43,.25,.72,.35,.29,.1,.6,.19,.94,.29,.34,.1,.65,.23,.94,.41s.53,.41,.72,.71c.19,.3,.29,.69,.29,1.19s-.09,.88-.26,1.23-.41,.64-.71,.87-.65,.4-1.04,.52c-.39,.11-.81,.17-1.25,.17-.55,0-1.06-.08-1.53-.25s-.91-.44-1.32-.81l1.33-1.46c.19,.26,.43,.45,.73,.59,.29,.14,.59,.21,.9,.21,.15,0,.31-.02,.46-.05,.16-.04,.3-.09,.42-.16,.12-.07,.22-.16,.3-.28,.08-.11,.11-.24,.11-.39,0-.26-.1-.46-.29-.61-.2-.15-.44-.27-.74-.38-.3-.1-.61-.21-.96-.31-.34-.1-.66-.24-.96-.42-.3-.18-.54-.41-.74-.69-.2-.29-.29-.67-.29-1.14s.09-.85,.27-1.2,.42-.63,.72-.86c.3-.23,.64-.4,1.04-.52,.39-.12,.79-.17,1.21-.17,.48,0,.94,.07,1.39,.2,.45,.14,.85,.36,1.21,.68l-1.28,1.4Z"/><path class="cls-2" d="M112.15,66.93h5.76v1.72h-3.89v1.58h3.68v1.73h-3.68v1.72h4.11v1.72h-5.98v-8.48Z"/><path class="cls-2" d="M124.89,66.93h3.28c.43,0,.84,.04,1.23,.13,.39,.08,.73,.22,1.02,.42s.52,.46,.69,.79c.17,.33,.26,.74,.26,1.24,0,.6-.16,1.11-.47,1.53-.31,.42-.77,.68-1.37,.8l2.16,3.58h-2.24l-1.77-3.39h-.92v3.39h-1.87v-8.48Zm1.87,3.51h1.1c.17,0,.35,0,.53-.02,.19-.01,.36-.05,.51-.11,.15-.06,.28-.15,.38-.28,.1-.13,.15-.31,.15-.54,0-.22-.04-.39-.13-.52-.09-.13-.2-.23-.33-.29-.14-.07-.29-.11-.47-.14s-.35-.04-.51-.04h-1.22v1.93Z"/><path class="cls-2" d="M137.08,66.93h2.13l2.1,5.56h.02l2.13-5.56h2l-3.5,8.48h-1.5l-3.39-8.48Z"/><path class="cls-2" d="M151.6,66.93h1.87v8.48h-1.87v-8.48Z"/><path class="cls-2" d="M165.98,69.13c-.18-.22-.41-.39-.68-.51s-.58-.18-.93-.18-.68,.07-.98,.2c-.3,.14-.56,.32-.78,.57-.22,.24-.39,.53-.51,.87-.12,.33-.19,.7-.19,1.09s.06,.76,.19,1.1c.12,.33,.29,.62,.51,.86,.22,.24,.47,.43,.76,.57,.29,.14,.6,.2,.94,.2,.38,0,.72-.08,1.02-.24,.3-.16,.54-.38,.73-.67l1.56,1.16c-.36,.5-.81,.87-1.36,1.11s-1.12,.36-1.7,.36c-.66,0-1.27-.1-1.83-.31s-1.04-.51-1.45-.89c-.41-.39-.72-.86-.95-1.41s-.34-1.17-.34-1.84,.11-1.29,.34-1.84,.54-1.02,.95-1.41c.41-.39,.89-.68,1.45-.89s1.17-.31,1.83-.31c.24,0,.49,.02,.75,.07,.26,.04,.52,.11,.77,.21,.25,.1,.49,.22,.72,.38,.23,.16,.44,.36,.62,.59l-1.44,1.17Z"/><path class="cls-2" d="M173.98,66.93h5.76v1.72h-3.89v1.58h3.68v1.73h-3.68v1.72h4.11v1.72h-5.98v-8.48Z"/><path class="cls-2" d="M190.92,69c-.15-.19-.36-.33-.62-.43s-.51-.14-.74-.14c-.14,0-.28,.02-.42,.05s-.28,.08-.41,.15c-.13,.07-.23,.16-.31,.27s-.12,.25-.12,.41c0,.26,.1,.45,.29,.59,.19,.14,.43,.25,.72,.35,.29,.1,.6,.19,.94,.29,.34,.1,.65,.23,.94,.41s.53,.41,.72,.71c.19,.3,.29,.69,.29,1.19s-.09,.88-.26,1.23-.41,.64-.71,.87-.65,.4-1.04,.52c-.39,.11-.81,.17-1.25,.17-.55,0-1.06-.08-1.53-.25s-.91-.44-1.32-.81l1.33-1.46c.19,.26,.43,.45,.73,.59,.29,.14,.59,.21,.9,.21,.15,0,.31-.02,.46-.05,.16-.04,.3-.09,.42-.16,.12-.07,.22-.16,.3-.28,.08-.11,.11-.24,.11-.39,0-.26-.1-.46-.29-.61-.2-.15-.44-.27-.74-.38-.3-.1-.61-.21-.96-.31-.34-.1-.66-.24-.96-.42-.3-.18-.54-.41-.74-.69-.2-.29-.29-.67-.29-1.14s.09-.85,.27-1.2,.42-.63,.72-.86c.3-.23,.64-.4,1.04-.52,.39-.12,.79-.17,1.21-.17,.48,0,.94,.07,1.39,.2,.45,.14,.85,.36,1.21,.68l-1.28,1.4Z"/></g><path class="cls-3" d="M123.37,10.59c6.37-4.29,14.05-6.79,22.3-6.79s15.33,2.32,21.55,6.31C159.05,3.78,148.79,0,137.64,0s-21.92,3.97-30.2,10.59h15.93Z"/><path class="cls-1" d="M188.8,10.59c-6.37,4.29-14.05,6.79-22.3,6.79s-15.33-2.32-21.55-6.31c8.18,6.33,18.44,10.11,29.59,10.11s21.92-3.97,30.2-10.59h-15.93Z"/></svg>