<?xml version="1.0" encoding="UTF-8"?><svg id="Layer_2" xmlns="http://www.w3.org/2000/svg" xmlns:xlink="http://www.w3.org/1999/xlink" viewBox="0 0 420.49 71.44"><defs><style>.cls-1{fill:url(#linear-gradient-2);}.cls-2{fill:#333;}.cls-3{fill:#c8c8c8;}.cls-4{fill:url(#linear-gradient-3);}.cls-5{fill:url(#linear-gradient);}.cls-6{fill:url(#linear-gradient-4);}</style><linearGradient id="linear-gradient" x1="377.07" y1="-57.32" x2="43.41" y2="135.32" gradientUnits="userSpaceOnUse"><stop offset="0" stop-color="#09f"/><stop offset="1" stop-color="#1274b6"/></linearGradient><linearGradient id="linear-gradient-2" x1="197.77" y1="27.28" x2="150.89" y2="54.34" xlink:href="#linear-gradient"/><linearGradient id="linear-gradient-3" x1="185.68" y1="34.6" x2="164.17" y2="47.02" xlink:href="#linear-gradient"/><linearGradient id="linear-gradient-4" x1="286.51" y1="24.29" x2="301" y2="24.29" gradientUnits="userSpaceOnUse"><stop offset=".01" stop-color="#09f"/><stop offset="1" stop-color="#2287de"/></linearGradient></defs><path class="cls-5" d="M411.43,10.8H203.77c-1.46-2.27-3.99-3.68-7.15-3.75-1.62-.04,0,0-4.87,.02-1.24,0-1.61-.58-2.31-1.47l-2.48-3.2c-1.18-1.52-2.75-2.38-4.7-2.39-2.72,0-5.44-.01-8.17-.01-2.72,0-5.44,0-8.17,.01-1.95,0-3.52,.87-4.7,2.39l-2.48,3.2c-.7,.9-1.07,1.48-2.31,1.47-4.87-.02-3.25-.06-4.87-.02-3.16,.07-5.69,1.48-7.15,3.75H9.06C2.9,10.8,0,15.92,0,22.08V56.2C0,62.36,3.04,67.02,9.2,67.02H124.7l3.12-3.28H9.2c-4.33,0-5.77-3.54-5.77-7.87l-.14-33.79c0-4.33,1.44-7.99,5.77-7.99H145.12s1.65-.01,1.65-.01c.52-2.22,2.3-3.55,4.85-3.55h7.16c.86,.02,1.27-.27,1.77-1.02l2.75-4.11c.87-1.3,1.86-2.01,3.47-1.99,2.44,.03,4.88,.04,7.31,.04,2.44,0,4.88-.01,7.31-.04,1.61-.02,2.61,.69,3.47,1.99l2.75,4.11c.5,.75,.91,1.03,1.77,1.03h7.16c2.55-.02,4.33,1.31,4.85,3.53h1.65s.04,.01,.04,.01h208.33c4.33,0,5.77,3.66,5.77,7.99V56.01c0,4.33-1.44,7.87-5.77,7.74H206.33l4.82,3.42h200.28c6.15,0,9.06-5,9.06-11.16V22.08c0-6.15-2.9-11.27-9.06-11.27Z"/><path class="cls-2" d="M206.33,58.29l16.43-38.67h30.93l-3.97,9.34h-20.41l-2.57,6.04h17.83l-3.34,7.87h-17.83l-6.55,15.41h-10.53Z"/><path class="cls-2" d="M258.58,19.62h10.53l-12.46,29.32h18.1l-3.97,9.34h-28.62l16.43-38.67Z"/><path class="cls-2" d="M306.4,38.96l-3.73-19.33h12.57l1.83,10.96,10.69-10.96h13.1l-20.78,19.33,4.35,19.33h-12.46l-1.99-11.01-10.74,11.01h-13l20.16-19.33Z"/><path class="cls-2" d="M362.28,48.94l-3.97,9.34h-32.22l16.43-38.67h32.22l-3.97,9.34h-21.7l-2.58,6.07h19.28l-3.33,7.84h-19.28l-2.58,6.07h21.7Z"/><path class="cls-2" d="M378.98,19.62h26.85c2.47,0,4.19,.86,5.16,2.58s.93,3.8-.11,6.23l-3.54,8.38c-1.04,2.4-2.62,4.47-4.75,6.2-2.13,1.74-4.72,2.6-7.76,2.6h-.21l4.67,12.67h-12.08l-3.65-12.67h-5.1l-5.37,12.67h-10.53l16.43-38.67Zm17.18,17.08c.46,0,.79-.23,.97-.7l2.69-6.34c.22-.46,.09-.7-.38-.7h-13.91l-3.28,7.73h13.91Z"/><path class="cls-3" d="M172.28,66.52c-5.89-.54-5.74-1.04-9.96-2.81-.67-.28-1.33-.59-2.05-.69-.72-.09-1.51,.07-1.99,.61-.23-.44-.72-.48-1.14-.21-.22-.48-.72-.81-1.24-.84s-1.05,.26-1.32,.72c.56-1.97-.29-4.29-2.03-5.37-1.74-1.07-4.19-.84-5.69,.55,.02-.67-.16-1.35-.72-1.72-.56-.38-1.31-.45-1.92-.18-.09-1.93-1.75-3.66-3.68-3.83s-3.86,1.24-4.29,3.13c-.85-.59-1.99-.12-2.51,.78-.53,.89-.4,2.06,.05,2.99,.46,.93,1.2,1.69,1.94,2.42-.87-.16-1.69-.46-2.55-.27-.86,.19-1.69,.82-1.82,1.69-.11,.75,.12,1.57,.57,2.18h0c.26,.38,.67,.68,1.11,.81,.91,.26,1.95-.21,2.89-.12,.55,.06,1.1,.11,1.65,.17,.52,.05,1.16-.06,1.65-.26,2.01,1.2,4.92,1.24,6.81-.15,1.63,.73,3.51,.55,5.29,.36,.77-.09,1.55-.17,2.29-.38,.33,.41,1.2,.39,1.63,.09,.32,.43,1.04,.3,2.2,.34h14.83Z"/><g><path class="cls-1" d="M174.33,13.75c-14.95,0-27.06,12.12-27.06,27.06s12.12,27.06,27.06,27.06,27.06-12.12,27.06-27.06-12.12-27.06-27.06-27.06Zm.91,49.86c-1.69,0-3.34-.19-4.93-.55-4.73-1.54-8.85-4.91-11.18-9.74-2.21-4.59-2.4-9.62-.92-14.1-2.84,3.7-3.83,8.63-2.46,13.26-1.99-3.37-3.14-7.31-3.14-11.51,0-3.9,.99-7.57,2.72-10.78,.02-.03,.04-.06,.05-.09,.34-.61,.7-1.21,1.08-1.78,.02-.03,.04-.06,.06-.08,.25-.36,.5-.72,.77-1.06,2.33-2.91,5.54-5.17,9.39-6.31,4.88-1.44,9.88-.8,14.07,1.38-1.68-1.78-3.77-3.12-6.06-3.9,.18,0,.37-.01,.55-.01,12,0,21.82,9.34,22.59,21.15,.15,3.84-.86,7.75-3.16,11.19-2.83,4.23-7.07,6.96-11.68,7.96,2.63,.32,5.29-.08,7.7-1.12-4.05,3.78-9.48,6.1-15.46,6.1Z"/><path class="cls-4" d="M187.34,40.78c0-3.17-1.22-6.34-3.64-8.76-2.46-2.46-5.71-3.67-8.94-3.63-3.13,.04-6.24,1.24-8.62,3.63-4.85,4.85-4.85,12.71,0,17.56,4.85,4.85,12.71,4.85,17.56,0,2.43-2.43,3.64-5.62,3.64-8.8Zm-8.22,4.21c-2.31,2.31-6.07,2.31-8.38,0-2.31-2.31-2.31-6.07,0-8.38,2.31-2.31,6.07-2.31,8.38,0,2.31,2.31,2.31,6.07,0,8.38Z"/></g><path class="cls-2" d="M35.23,48.95c.29,0,.48-.14,.59-.43l1.72-4.02h10.52l-3.65,8.64c-.61,1.43-1.63,2.65-3.06,3.65-1.43,1-2.86,1.5-4.29,1.5H14.68c-2.47,0-4.19-.85-5.18-2.55-.98-1.7-.94-3.78,.13-6.25l8.91-21.03c1.04-2.47,2.5-4.55,4.4-6.25,1.9-1.7,4.08-2.55,6.55-2.55h23.98c1.43,0,2.43,.5,3,1.5,.57,1,.55,2.22-.05,3.65l-3.65,8.64h-10.52l1.66-4.02c.14-.29,.07-.43-.21-.43h-14.17c-.47,0-.81,.23-1.02,.7l-7.89,18.57c-.18,.47-.04,.7,.43,.7h14.17Z"/><path class="cls-2" d="M60.99,28.46c2.5-5.87,5.79-8.8,9.87-8.8h21.19c2.47,0,4.18,.85,5.15,2.55,.97,1.7,.93,3.78-.11,6.25l-12.66,29.83h-10.52l5.38-12.66-15.12,.1-5.34,12.56h-10.52l12.66-29.83Zm22.09,8.26l2.7-6.38c.39-.89,.14-1.34-.75-1.34h-12.39c-.89,0-1.54,.45-1.93,1.34l-2.7,6.38h15.08Z"/><path class="cls-2" d="M107.35,19.66h26.83c2.47,0,4.19,.86,5.15,2.58s.93,3.79-.11,6.22l-3.54,8.37c-1.04,2.4-2.62,4.46-4.75,6.2-2.13,1.74-4.71,2.6-7.75,2.6h-.21l4.67,12.66h-12.07l-3.65-12.66h-5.1l-5.37,12.66h-10.52l16.42-38.63Zm17.17,17.06c.46,0,.79-.23,.97-.7l2.68-6.33c.22-.46,.09-.7-.38-.7h-13.9l-3.27,7.73h13.9Z"/><polygon class="cls-2" points="274.05 58.29 284.57 58.29 292.79 38.96 286.51 28.97 274.05 58.29"/><polygon class="cls-6" points="301 19.62 290.48 19.62 286.51 28.97 297.03 28.97 301 19.62"/></svg>