<?xml version="1.0" encoding="UTF-8"?><svg id="Layer_2" xmlns="http://www.w3.org/2000/svg" viewBox="0 0 353.12 67.43"><defs><style>.cls-1{stroke-width:1.51px;}.cls-1,.cls-2{fill:none;stroke:#69889b;stroke-miterlimit:10;}.cls-3{fill:#1f4d60;}.cls-2{stroke-width:1.5px;}.cls-4{fill:#69889b;}</style></defs><g><path class="cls-3" d="M152.5,55.41v11.89h-1.61v-5.41h-6.41v5.41h-1.61v-11.89h1.61v5.3h6.41v-5.3h1.61Z"/><path class="cls-3" d="M166.86,61.36c0,.89-.14,1.71-.42,2.45-.28,.74-.68,1.38-1.19,1.92-.52,.54-1.13,.95-1.86,1.25-.72,.3-1.52,.44-2.39,.44s-1.67-.15-2.39-.44c-.72-.3-1.34-.71-1.85-1.25-.52-.54-.91-1.18-1.2-1.92-.28-.74-.42-1.56-.42-2.45s.14-1.71,.42-2.45c.28-.74,.68-1.38,1.2-1.92,.51-.54,1.13-.96,1.85-1.26,.72-.3,1.52-.45,2.39-.45s1.67,.15,2.39,.45c.72,.3,1.34,.72,1.86,1.26,.51,.54,.91,1.18,1.19,1.92,.28,.74,.42,1.56,.42,2.45Zm-1.65,0c0-.73-.1-1.38-.3-1.97-.2-.58-.48-1.07-.85-1.47-.37-.4-.81-.71-1.33-.93-.52-.21-1.1-.32-1.74-.32s-1.21,.11-1.74,.32c-.52,.22-.96,.53-1.33,.93-.37,.4-.65,.89-.85,1.47-.2,.58-.3,1.24-.3,1.97s.1,1.39,.3,1.96c.2,.58,.48,1.07,.85,1.47,.37,.4,.81,.71,1.33,.92,.52,.21,1.1,.32,1.74,.32s1.22-.11,1.74-.32c.52-.21,.96-.52,1.33-.92,.37-.4,.65-.89,.85-1.47,.2-.58,.3-1.23,.3-1.96Z"/><path class="cls-3" d="M181.87,55.41v11.89h-1.41v-8.74c0-.12,0-.24,.01-.38,0-.13,.02-.27,.03-.41l-4.08,7.44c-.13,.25-.32,.37-.58,.37h-.23c-.26,0-.45-.12-.58-.37l-4.17-7.47c.03,.29,.05,.56,.05,.81v8.74h-1.41v-11.89h1.19c.14,0,.25,.01,.33,.04,.08,.03,.15,.11,.22,.23l4.11,7.32c.06,.13,.13,.27,.19,.41,.06,.14,.12,.29,.18,.44,.06-.15,.12-.3,.17-.45,.06-.15,.13-.29,.2-.42l4.03-7.31c.07-.13,.14-.2,.22-.23,.08-.03,.19-.04,.34-.04h1.19Z"/><path class="cls-3" d="M192.41,65.99v1.31h-7.34v-11.89h7.33v1.31h-5.72v3.95h4.63v1.26h-4.63v4.06h5.73Z"/><path class="cls-3" d="M201.07,57.26c-.05,.08-.1,.14-.16,.19-.06,.04-.13,.06-.21,.06-.09,0-.21-.05-.33-.14-.13-.09-.29-.2-.48-.31-.19-.11-.42-.22-.69-.31-.27-.09-.59-.14-.97-.14-.36,0-.68,.05-.95,.15-.27,.1-.5,.23-.69,.39-.19,.17-.32,.36-.42,.58-.09,.22-.14,.47-.14,.73,0,.33,.08,.61,.25,.83,.16,.22,.38,.41,.65,.56,.27,.16,.57,.29,.91,.4,.34,.11,.69,.23,1.05,.35,.36,.12,.7,.26,1.04,.41,.34,.15,.65,.34,.91,.58,.27,.23,.48,.52,.65,.85,.16,.34,.24,.75,.24,1.25,0,.52-.09,1.01-.26,1.46-.18,.46-.44,.85-.78,1.19-.34,.34-.76,.6-1.26,.8-.5,.19-1.06,.29-1.69,.29-.78,0-1.48-.14-2.11-.42-.63-.28-1.17-.66-1.62-1.13l.47-.76c.04-.06,.1-.11,.16-.15,.06-.04,.13-.06,.21-.06s.15,.03,.24,.09c.09,.06,.2,.13,.31,.22,.12,.09,.25,.19,.4,.29s.32,.2,.51,.29c.19,.09,.41,.16,.65,.22,.24,.06,.52,.09,.82,.09,.38,0,.72-.05,1.02-.16,.3-.1,.55-.25,.76-.44,.21-.19,.37-.42,.48-.69,.11-.27,.17-.56,.17-.89,0-.36-.08-.65-.25-.88-.16-.23-.38-.42-.64-.58-.26-.16-.57-.29-.91-.39-.34-.11-.69-.22-1.04-.33-.36-.11-.7-.24-1.05-.39-.34-.15-.65-.34-.91-.58-.26-.24-.48-.54-.64-.89-.16-.36-.24-.8-.24-1.33,0-.42,.08-.83,.24-1.22,.16-.39,.4-.74,.71-1.04,.31-.3,.7-.55,1.15-.73,.46-.18,.98-.27,1.57-.27,.66,0,1.27,.11,1.81,.32,.54,.21,1.03,.51,1.44,.91l-.39,.76Z"/></g><g><path class="cls-3" d="M1.66,35.39c.13,0,.23,.04,.23,.26,.06,1.03,.53,2.45,1.33,3.74,.96,1.52,2.58,2.25,4.17,2.25s4.14-1.06,4.14-3.68c0-2.75-.53-3.54-4.84-5.17-.99-.36-3.11-1.42-4.8-2.88-1.16-1.03-1.66-2.78-1.66-4.7,0-2.02,.5-3.38,2.48-4.87,1.49-1.13,2.75-1.59,4.77-1.59,2.42,0,3.71,.4,4.4,.66,.33,.13,.56,.07,.76-.16l.43-.43c.13-.14,.29-.2,.5-.2,.23,0,.3,.37,.33,.56l.53,5.66c0,.13-.06,.17-.17,.2l-.73,.23c-.17,.06-.33,0-.43-.23-.36-.96-.93-2.25-2.05-3.45-.83-.93-1.82-1.39-3.31-1.39-2.48,0-3.51,2.15-3.51,3.01,0,1.23,.03,2.22,.86,3.05,.86,.89,2.75,1.69,4.37,2.15,1.59,.46,2.88,1.29,4.24,2.52,1.29,1.15,1.82,2.61,1.82,4.93,0,4.04-2.88,7.32-7.25,7.32-2.98,0-4.53-.5-5.92-1.42-.4-.27-.6-.36-.76-.36-.2,0-.33,.23-.53,.56-.2,.37-.37,.4-.6,.4-.36,0-.5-.17-.46-.53l.53-6.29c.03-.23,.13-.23,.27-.23l.86,.07Z"/><path class="cls-3" d="M26.6,20.81h-1.16c-1.06,0-3.05,.04-4.44,.53-.73,.53-2.19,2.55-3.01,3.74-.1,.17-.2,.27-.33,.23l-.73-.27c-.13-.03-.16-.2-.13-.3,.36-1.39,1.46-5.76,1.59-6.42,.1-.43,.27-.56,.5-.56s.33,.13,.63,.5c.37,.46,1,.76,2.19,.83,1.75,.1,3.14,.2,6.59,.2h1.92c3.61,0,5.03-.14,6.43-.2,.72-.03,2.02-.43,2.42-.83,.33-.33,.52-.5,.76-.5s.33,.13,.39,.53c.1,.73,.73,4.83,1,6.59,.03,.13-.04,.27-.14,.3l-.7,.26c-.13,.03-.19-.07-.33-.3-.73-1.19-2.02-2.91-2.85-3.71-.83-.5-3.77-.63-4.54-.63h-1.09v9.11c0,.46,0,9.73,.04,10.23,.06,.83,.33,1.32,1.13,1.32h1.49c.3,0,.34,.1,.34,.33v.76c0,.17-.04,.26-.34,.26-.33,0-1.39-.1-5.06-.1s-4.9,.1-5.36,.1c-.27,0-.3-.13-.3-.4v-.63c0-.23,.04-.33,.23-.33h1.69c.66,0,1.06-.39,1.13-.99,.06-.7,.06-10.86,.06-11.49v-8.18Z"/><path class="cls-3" d="M44.69,33.66c-.27,.69-1.89,5.23-1.89,6.29,0,.73,.29,1.52,1.29,1.52h1.16c.33,0,.36,.14,.36,.27v.73c0,.27-.03,.36-.29,.36-.43,0-1.79-.1-4.5-.1-2.42,0-3.15,.1-3.61,.1-.2,0-.24-.2-.24-.43v-.63c0-.2,.04-.3,.24-.3h.86c.79,0,1.59-.46,2.25-1.46,.46-.7,2.81-6.46,3.9-9.37,.27-.66,2.95-7.78,3.25-8.67,.1-.33,.27-.76,.04-1.13-.1-.14-.24-.3-.24-.43,0-.1,.06-.23,.33-.3,1.06-.23,3.21-1.09,3.71-1.66,.16-.17,.26-.29,.43-.29,.19,0,.27,.2,.36,.56,.63,2.09,3.21,9.51,3.84,11.62,.76,2.58,2.91,8.74,3.38,9.64,.56,1.09,1.42,1.49,1.92,1.49h1.13c.19,0,.23,.14,.23,.3v.63c0,.2-.04,.43-.3,.43-.62,0-1.32-.1-5.56-.1-2.75,0-3.91,.1-4.57,.1-.34,0-.37-.2-.37-.43v-.63c0-.17,.03-.3,.2-.3h.93c.89,0,1.19-.33,.99-1.19-.29-1.19-1.59-5.43-1.99-6.62h-7.25Zm6.96-1.33c-.3-.99-2.25-7.95-2.49-8.77-.13-.5-.19-.73-.36-.73-.2,0-.3,.13-.4,.43-.16,.43-3.01,8.24-3.28,9.07h6.53Z"/><path class="cls-3" d="M85.1,33.07c0-2.95-.03-4.57-.09-6.22-.04-1.29-.2-4.54-.3-5.03-.2-.83-1-1.29-1.76-1.29h-1.06c-.17,0-.19-.1-.19-.29v-.83c0-.17,.03-.23,.29-.23,.37,0,1.43,.1,3.88,.1,1.99,0,2.78-.1,3.14-.1,.3,0,.33,.06,.33,.27v.8c0,.17-.03,.29-.17,.29h-.93c-.57,0-.9,.57-1,1.76-.23,2.22-.76,9.7-.76,14.07v5.67c0,.5-.03,1.09-.5,1.09-.5,0-.93-.17-1.29-.53-.57-.53-2.19-2.28-4.17-4.63-2.38-2.81-5.03-6-5.66-6.72-.57-.66-5.13-6.36-5.9-7.45h-.27v6.69c0,2.75,.29,6.82,.33,8.08,.06,1.92,.66,2.91,2.05,2.91h.83c.23,0,.27,.1,.27,.3v.8c0,.19-.04,.26-.27,.26-.33,0-2.32-.1-3.87-.1-1.03,0-3.31,.1-3.64,.1-.14,0-.17-.07-.17-.3v-.86c0-.1,.03-.2,.19-.2h1.16c.73,0,1.26-1.06,1.42-3.28,.04-.63,.3-5.92,.3-10.83v-2.98c0-1.95-1.19-3.81-2.85-3.84l-.83-.03c-.17,0-.19-.13-.19-.23v-.89c0-.14,.03-.2,.19-.2s.43,.03,1.06,.03c.67,.03,1.72,.07,3.44,.07,1.13,0,2.12-.07,2.52-.07,.43,0,.7,.13,.96,.43,.17,.2,6.69,8.18,7.68,9.41,.47,.56,5.3,6.62,5.66,7.05h.13v-3.01Z"/><path class="cls-3" d="M98.55,32.34c0,.56,0,7.71,.09,9.04h1.89c1.56,0,3.04,0,4.83-.17,1.79-.17,4.04-4.14,4.53-5.36,.1-.2,.2-.3,.4-.2l.66,.27c.1,.07,.1,.1,.06,.3-.1,.23-1.42,5.69-1.62,6.59-.86-.07-10.4-.1-13.45-.1-3.28,0-4.47,.1-4.9,.1-.23,0-.27-.07-.27-.3v-.83c0-.17,.04-.23,.23-.23h1.03c1.22,0,1.42-.46,1.42-.83,0-.63,.1-8.88,.1-10.89v-1.86c0-2.12-.06-5.63-.1-6.16-.06-.86-.23-1.19-.99-1.19h-1.23c-.2,0-.24-.17-.24-.33v-.8c0-.17,.04-.23,.24-.23,.37,0,1.56,.1,4.57,.1,3.87,0,5.26-.1,5.56-.1,.27,0,.29,.1,.29,.33v.76c0,.17-.06,.27-.33,.27h-1.56c-1.03,0-1.16,.33-1.16,1.23,0,.43-.09,5.43-.09,7.75v2.85Z"/><path class="cls-3" d="M119.35,30.03c1.52,0,2.98-.1,3.38-.19,.56-.14,1.03-.43,1.52-1.03,.37-.5,.76-1.42,.76-2.05,0-.23,.1-.3,.27-.3l.9,.1c.16,.03,.3,.07,.27,.27-.1,.56-.1,2.28-.1,3.45,0,1.49,.14,3.08,.2,3.77,.03,.2-.1,.23-.27,.27l-.8,.17c-.13,.04-.2-.03-.27-.27-.13-.53-.47-1.29-.66-1.69-.37-.63-1.16-1.06-1.82-1.16-.9-.13-1.92-.2-3.38-.2v1.99c0,1.79,.17,5,.17,5.6,0,1.72,.37,2.32,.8,2.51,.5,.2,1.13,.3,2.78,.3,.56,0,1.95-.03,2.65-.1,.66-.07,1.66-.4,2.52-1.09,.86-.7,2.71-2.75,3.38-3.54,.13-.13,.23-.17,.33-.1l.56,.33c.14,.07,.17,.17,.14,.26l-1.49,5c-.1,.3-.33,.5-.72,.5-.17,0-.9-.03-3.02-.07-2.15,0-5.66-.03-11.39-.03-1.23,0-2.15,.03-2.81,.03-.7,.04-1.13,.07-1.43,.07-.23,0-.29-.1-.29-.36v-.7c0-.2,.09-.3,.33-.3h.99c1.53,0,1.66-.23,1.66-1.39v-11.09c0-2.75-.06-6.82-.1-7.15-.13-1.06-.46-1.29-1.36-1.29h-1.29c-.14,0-.16-.1-.16-.33v-.8c0-.1,.03-.23,.23-.23,.73,0,1.89,.1,4.9,.1l11.62-.04c.53,0,1.16-.06,1.33-.06s.23,.06,.27,.17c.13,.47,1.23,5,1.36,5.33,.06,.16,.06,.23-.1,.33l-.53,.27c-.13,.07-.29,.03-.39-.13-.16-.27-3.15-3.25-3.91-3.71-.7-.43-1.62-.86-2.52-.9l-4.37-.13-.1,9.63Z"/><path class="cls-3" d="M145.92,36.46c0,1.29,.1,3.44,.13,3.74,.1,1.06,.6,1.16,1.13,1.16h.96c.24,0,.24,.1,.24,.23v.83c0,.2,0,.3-.24,.3-.39,0-1.69-.1-4.8-.1-3.44,0-4.47,.1-4.83,.1-.14,0-.2-.1-.2-.33v-.8c0-.13,.04-.23,.23-.23h1.16c.86,0,1.13-.33,1.16-.76,.03-.46,.09-3.08,.09-6.16v-1.42c-.52-1.03-5.82-10.7-6.66-11.82-.4-.5-1.19-.76-1.72-.76h-.5c-.2,0-.23-.1-.23-.23v-.93c0-.14,.03-.2,.23-.2,.3,0,1.86,.1,4.8,.1,3.41,0,4.6-.1,4.93-.1,.2,0,.24,.06,.24,.23v.83c0,.17-.04,.29-.24,.29h-.76c-.46,0-.8,.33-.8,.86,0,.6,3.94,8.18,4.84,10.1,.99-1.82,4.96-8.81,4.96-9.84,0-.56-.56-1.13-1.26-1.13h-.9c-.2,0-.23-.1-.23-.29v-.86c0-.14,.03-.2,.23-.2,.33,0,1.69,.1,4.14,.1,2.29,0,3.01-.1,3.31-.1,.23,0,.27,.06,.27,.27v.8c0,.2-.04,.29-.27,.29h-.6c-.4,0-1.39,.2-1.89,.8-.43,.53-5.6,9.01-6.96,11.56v3.67Z"/></g><g><path class="cls-3" d="M175.24,19.18v6.54h-6.17s-.63,0-1.01-.46h-.09s-.93,1.23-1.26,2.09c-.34,.85-.88,2.23-.88,3.92,0,1.7,.24,3.13,1.22,4.88,.98,1.75,3.55,3.89,6.62,4.12,0,0,.64-.91,1.56-.88v3.6s-1.31-.02-1.73-1.24c0,0-2.49-.32-4.7-2.16-2.22-1.83-3.33-4.33-3.62-6.18-.3-1.85-.47-4.13,1.84-8.54,0,0-.37-.41-.29-.94,.09-.53,.46-.9,1.05-1,0,0,.47-.89,1.6-1.09,1.14-.2,3.69-.36,4.24-.73,.55-.37,.88-.54,1.15-1.16,.26-.62,.32-.77,.45-.77Z"/><path class="cls-3" d="M175.24,26.72v11.29s-.52-.09-.61-.53c-.09-.44-.8-1.04-2.36-1.56-1.56-.51-4.25-1.77-4.77-3.83-.53-2.06-.03-3.76,.12-4.28,.16-.52,.16-1.09,1.33-1.09h6.28Z"/></g><g><path class="cls-4" d="M175.24,19.18v6.54h6.17s.64,0,1-.46h.09s.93,1.23,1.26,2.09c.34,.85,.88,2.23,.88,3.92,0,1.7-.24,3.13-1.22,4.88-.98,1.75-3.57,3.89-6.62,4.12,0,0-.65-.91-1.57-.88v3.6s1.31-.02,1.74-1.24c0,0,2.49-.32,4.7-2.16,2.22-1.83,3.33-4.33,3.62-6.18,.3-1.85,.47-4.13-1.84-8.54,0,0,.37-.41,.29-.94-.08-.53-.46-.9-1.05-1,0,0-.46-.89-1.61-1.09-1.14-.2-3.69-.36-4.24-.73-.54-.37-.88-.54-1.15-1.16-.26-.62-.32-.77-.46-.77Z"/><path class="cls-4" d="M175.24,26.72v11.29s.53-.09,.62-.53c.09-.44,.8-1.04,2.36-1.56,1.56-.51,4.25-1.77,4.77-3.83,.53-2.06,.03-3.76-.12-4.28-.16-.52-.16-1.09-1.33-1.09h-6.29Z"/></g><line class="cls-1" x1=".26" y1=".75" x2="344.74" y2=".75"/><line class="cls-2" x1=".02" y1="61.48" x2="132.42" y2="61.48"/><line class="cls-1" x1="212.06" y1="61.2" x2="344.74" y2="61.2"/><g><path class="cls-3" d="M201.01,38.47c.1,1.22,.63,3.08,1.72,3.08h1.29c.2,0,.23,.1,.23,.23v.9c0,.13-.03,.23-.3,.23-.37,0-1.26-.1-3.68-.1-2.81,0-3.97,.1-4.27,.1-.27,0-.3-.03-.3-.29v-.86c0-.1,.04-.2,.2-.2h1.36c1.06,0,1.46-1.52,1.59-2.58,.29-2.35,.59-10.17,.59-10.76l-.04-5.06c0-1.52-.33-2.52-1.82-2.52h-1.09c-.2,0-.23-.1-.23-.23v-.93c0-.1,.03-.2,.23-.2,.33,0,1.23,.1,5.13,.1,1.56,0,2.58-.1,2.98-.1,.33,0,.6,.03,.8,.56,2.12,5.63,4.5,11.13,6.36,16.09,.36-.63,2.88-6.79,3.08-7.25,.13-.33,3.44-8.25,3.61-8.91,.1-.37,.53-.4,1.52-.4,5.17,0,6.29-.1,6.66-.1,.17,0,.2,.1,.2,.29v.76c0,.2-.03,.3-.27,.3h-1.46c-.76,0-.86,.6-.86,1.29,0,.5,.04,8.64,.07,9.34,0,.66,.1,7.91,.1,8.51,0,1.26,.3,1.79,.76,1.79h1.59c.2,0,.23,.1,.23,.23v.83c0,.2-.03,.29-.3,.29-.4,0-.99-.1-4.9-.1-3.38,0-4.67,.1-5.1,.1-.23,0-.26-.1-.26-.29v-.83c0-.16,.03-.23,.26-.23h1.85c.56,0,.86-.2,.92-1.12,.04-.4,.14-6.43,.14-8.74v-10.1h-.2c-.33,.56-4.04,9.57-4.63,10.93-.7,1.52-3.64,8.87-3.81,9.17-.17,.27-.4,.76-.8,.76-.23,0-.43-.23-.59-.6-.1-.23-4.47-10.5-4.7-11.09-.6-1.52-3.64-8.94-3.91-9.34-.13,.46-.2,8.84-.2,9.24s.03,4.9,.23,7.82Z"/><path class="cls-3" d="M237.11,33.74c-.27,.69-1.89,5.23-1.89,6.29,0,.73,.3,1.52,1.29,1.52h1.16c.33,0,.36,.13,.36,.27v.73c0,.26-.03,.36-.3,.36-.43,0-1.79-.1-4.5-.1-2.42,0-3.14,.1-3.61,.1-.2,0-.23-.19-.23-.43v-.63c0-.2,.03-.3,.23-.3h.86c.79,0,1.59-.46,2.25-1.46,.46-.7,2.81-6.46,3.91-9.37,.27-.66,2.95-7.78,3.25-8.67,.1-.33,.27-.76,.04-1.13-.1-.13-.23-.3-.23-.43,0-.1,.06-.23,.33-.3,1.06-.23,3.21-1.09,3.71-1.66,.16-.16,.26-.3,.43-.3,.2,0,.27,.2,.36,.56,.63,2.09,3.21,9.5,3.84,11.62,.76,2.58,2.91,8.74,3.38,9.63,.56,1.1,1.42,1.49,1.92,1.49h1.13c.2,0,.23,.13,.23,.3v.63c0,.2-.03,.43-.3,.43-.63,0-1.32-.1-5.56-.1-2.75,0-3.91,.1-4.57,.1-.33,0-.37-.19-.37-.43v-.63c0-.16,.03-.3,.2-.3h.93c.89,0,1.19-.33,.99-1.19-.3-1.19-1.59-5.43-1.99-6.62h-7.25Zm6.95-1.32c-.3-1-2.25-7.95-2.49-8.78-.13-.5-.2-.73-.36-.73-.2,0-.3,.13-.4,.43-.16,.43-3.01,8.24-3.28,9.07h6.52Z"/><path class="cls-3" d="M260.42,27.74c0-2.45,0-4.57-.03-5.46-.03-1.09-.46-1.66-.93-1.66h-1.32c-.16,0-.2-.1-.2-.23v-.9c0-.17,.04-.23,.2-.23,.3,0,1.32,.1,4.93,.1,1.85,0,4.77-.1,6.12-.1,2.58,0,4.5,.93,5.86,2.18,1.19,1.09,1.89,2.38,1.89,3.61,0,4.2-3.14,6.09-6.06,6.35v.23c1.03,.33,1.56,.96,2.19,1.75,.43,.53,2.25,3.48,2.51,3.88,.2,.3,1.99,2.81,2.65,3.58,.4,.43,1.66,.7,2.42,.7,.23,0,.26,.13,.26,.27v.8c0,.2-.03,.29-.26,.29-.27,0-1.13-.1-3.68-.1-.96,0-2.18,.07-3.14,.1-.99-.76-3.05-4.6-3.61-5.73-1.13-2.25-2.48-4.7-4.07-4.7h-1.12v1.69c0,1.95,.1,5.66,.16,6.09,.06,.7,.33,1.29,.83,1.29h1.36c.23,0,.27,.1,.27,.27v.8c0,.23-.03,.29-.53,.29-.03,0-.86-.1-4.34-.1s-4.27,.1-4.64,.1c-.26,0-.26-.1-.26-.33v-.76c0-.17,0-.27,.16-.27h.99c.73,0,1.33-.23,1.33-1.06,.06-3.28,.06-6.39,.06-9.53v-3.21Zm4.64,3.57c.63,.04,1.03,.04,1.32,.04,4.37,0,5.4-4.17,5.4-5.73s-.53-2.98-1.26-3.71c-1.19-1.06-2.68-1.46-3.67-1.46-.56,0-1,.07-1.26,.3-.2,.13-.3,.5-.37,.89l-.16,9.67Z"/><path class="cls-3" d="M288.69,20.89h-1.16c-1.06,0-3.04,.03-4.44,.53-.73,.53-2.19,2.55-3.01,3.74-.1,.16-.2,.27-.33,.23l-.73-.27c-.13-.04-.16-.2-.13-.3,.37-1.39,1.46-5.76,1.59-6.42,.1-.43,.26-.57,.5-.57s.33,.13,.63,.5c.37,.46,.99,.76,2.19,.83,1.75,.1,3.14,.2,6.59,.2h1.92c3.61,0,5.03-.13,6.43-.2,.73-.04,2.02-.43,2.42-.83,.33-.33,.53-.5,.76-.5s.33,.13,.4,.53c.1,.73,.73,4.83,.99,6.59,.03,.13-.03,.27-.13,.3l-.7,.26c-.13,.04-.2-.06-.33-.29-.73-1.19-2.02-2.92-2.85-3.71-.83-.5-3.78-.63-4.54-.63h-1.09v9.11c0,.46,0,9.73,.03,10.23,.06,.83,.33,1.33,1.13,1.33h1.49c.3,0,.33,.1,.33,.33v.76c0,.16-.03,.26-.33,.26-.33,0-1.39-.1-5.06-.1s-4.9,.1-5.36,.1c-.27,0-.3-.13-.3-.4v-.63c0-.23,.04-.33,.23-.33h1.69c.66,0,1.06-.39,1.13-.99,.06-.7,.06-10.86,.06-11.49v-8.18Z"/><path class="cls-3" d="M308.67,28.93c0-.8-.1-6.76-.13-7.19-.06-.8-.4-1.13-1.09-1.13h-1.59c-.17,0-.27-.06-.27-.2v-.96c0-.13,.1-.2,.23-.2,.4,0,2.09,.1,5.33,.1s4.44-.1,4.9-.1c.17,0,.23,.1,.23,.29v.83c0,.17-.1,.23-.27,.23h-.96c-.83,0-1.32,.27-1.32,.86,0,.33-.1,7.65-.1,8.05v2.55c0,.33,.1,7.98,.1,8.28,0,1.03,.5,1.19,1.13,1.19h1.36c.16,0,.26,.07,.26,.23v.93c0,.13-.1,.19-.3,.19-.39,0-1.72-.1-4.87-.1-3.48,0-4.9,.1-5.26,.1-.17,0-.27-.07-.27-.26v-.89c0-.14,.1-.2,.27-.2h.96c.66,0,1.36-.1,1.49-.89,.06-.5,.16-7.65,.16-9.41v-2.32Z"/><path class="cls-3" d="M340.46,33.17c0-2.95-.03-4.57-.1-6.23-.04-1.29-.2-4.54-.3-5.03-.2-.83-.99-1.29-1.75-1.29h-1.06c-.16,0-.2-.1-.2-.3v-.83c0-.17,.03-.23,.3-.23,.37,0,1.42,.1,3.88,.1,1.99,0,2.78-.1,3.15-.1,.3,0,.33,.06,.33,.26v.8c0,.16-.03,.3-.16,.3h-.93c-.56,0-.89,.56-.99,1.76-.23,2.22-.76,9.7-.76,14.07v5.66c0,.5-.03,1.09-.5,1.09-.5,0-.93-.17-1.29-.53-.56-.53-2.18-2.28-4.17-4.64-2.38-2.81-5.03-5.99-5.66-6.72-.56-.66-5.13-6.35-5.9-7.45h-.26v6.69c0,2.75,.3,6.82,.33,8.08,.06,1.92,.66,2.91,2.05,2.91h.83c.23,0,.26,.1,.26,.3v.8c0,.2-.03,.26-.26,.26-.33,0-2.32-.1-3.87-.1-1.03,0-3.31,.1-3.64,.1-.13,0-.17-.07-.17-.29v-.86c0-.1,.03-.2,.2-.2h1.16c.73,0,1.26-1.06,1.42-3.28,.03-.63,.3-5.93,.3-10.83v-2.98c0-1.95-1.19-3.81-2.85-3.84l-.83-.04c-.16,0-.2-.13-.2-.23v-.89c0-.13,.03-.2,.2-.2s.43,.03,1.06,.03c.66,.04,1.72,.07,3.44,.07,1.13,0,2.12-.07,2.52-.07,.43,0,.7,.14,.96,.43,.17,.2,6.69,8.18,7.68,9.41,.46,.56,5.3,6.62,5.66,7.05h.13v-3.01Z"/></g><path class="cls-3" d="M348.21,22.35v-2.64h-1v-.46h2.53v.46h-1.01v2.64h-.52Zm1.87,0v-3.1h.76l.78,2.47,.76-2.47h.74v3.1h-.47v-2.6l-.8,2.6h-.47l-.83-2.64v2.64h-.48Z"/></svg>